<svg xmlns="http://www.w3.org/2000/svg" width="1600" height="1000" viewBox="0 0 1600 1000">
<defs>
  <linearGradient id="g" x1="0" x2="1" y1="0" y2="1">
    <stop offset="0" stop-color="#0a0f1c"/>
    <stop offset=".55" stop-color="#11182a"/>
    <stop offset="1" stop-color="#1f1230"/>
  </linearGradient>
  <radialGradient id="o" cx=".75" cy=".25" r=".55">
    <stop offset="0" stop-color="#ff8a00" stop-opacity=".95"/>
    <stop offset=".45" stop-color="#ff6a00" stop-opacity=".28"/>
    <stop offset="1" stop-color="#ff6a00" stop-opacity="0"/>
  </radialGradient>
  <pattern id="grid" width="60" height="60" patternUnits="userSpaceOnUse">
    <path d="M60 0H0V60" fill="none" stroke="#ffffff" stroke-opacity=".045"/>
  </pattern>
</defs>
<rect width="1600" height="1000" fill="url(#g)"/>
<rect width="1600" height="1000" fill="url(#o)"/>
<rect width="1600" height="1000" fill="url(#grid)"/>
<g opacity=".28" fill="none" stroke="#ff8a00">
  <circle cx="1260" cy="320" r="160"/>
  <circle cx="1260" cy="320" r="250"/>
  <circle cx="1260" cy="320" r="360"/>
</g>
<g transform="translate(950 410)">
  <path d="M0 190C95 50 182 8 286 0c-45 53-60 112-42 172 30 98-5 207-101 256-114 57-248-1-286-121-26-84 8-119 143-117z" fill="#ff7a00" opacity=".82"/>
  <path d="M72 136c48-66 95-94 151-98-24 34-29 73-17 112 18 60-5 127-64 156-70 34-151-3-173-76-16-51 7-72 103-94z" fill="#0a0f1c"/>
</g>
</svg>